<?xml version="1.0" encoding="UTF-8"?>
<svg id="Layer_1" data-name="Layer 1" xmlns="http://www.w3.org/2000/svg" viewBox="0 0 14.92 12.49">
  <defs>
    <style>
      .cls-1 {
        fill: #2da9e1;
      }
    </style>
  </defs>
  <path class="cls-1" d="M12.97,3.48l-1.3-1.17c-.24-.21-.6-.19-.81,.04-.21,.24-.19,.6,.04,.81l1.3,1.17c1.09,.99,1.58,1.44,1.58,1.85s-.48,.86-1.58,1.85l-1.3,1.17c-.24,.21-.25,.57-.04,.81,.11,.13,.27,.19,.43,.19,.14,0,.27-.05,.38-.15l1.3-1.17c1.26-1.13,1.95-1.76,1.95-2.69s-.7-1.56-1.96-2.7Z"/>
  <path class="cls-1" d="M7.49,6.14c-.31-.08-.62,.1-.7,.41l-1.4,5.22c-.08,.31,.1,.62,.41,.7,.05,.01,.1,.02,.15,.02,.25,0,.49-.17,.55-.43l1.4-5.22c.08-.31-.1-.62-.41-.7Z"/>
  <path class="cls-1" d="M9.13,.02c-.31-.08-.62,.1-.7,.41l-.76,2.83c-.08,.31,.1,.62,.41,.7,.05,.01,.1,.02,.15,.02,.25,0,.49-.17,.55-.43l.76-2.83c.08-.31-.1-.62-.41-.7Z"/>
  <path class="cls-1" d="M2.73,4.33l1.3-1.17c.24-.21,.25-.57,.04-.81-.21-.23-.57-.25-.81-.04l-1.3,1.17c-1.26,1.14-1.96,1.76-1.96,2.7s.7,1.56,1.96,2.7l1.3,1.17c.11,.1,.25,.15,.38,.15,.16,0,.31-.06,.43-.19,.21-.24,.19-.6-.04-.81l-1.3-1.17c-1.09-.99-1.58-1.44-1.58-1.85s.48-.86,1.58-1.85Z"/>
</svg>